<mxfile host="app.diagrams.net" modified="2022-08-05T14:35:41.203Z" agent="5.0 (Windows NT 10.0; Win64; x64) AppleWebKit/537.36 (KHTML, like Gecko) Chrome/103.0.5060.53 Safari/537.36 Edg/103.0.1264.37" etag="y6Qnp-qL7ggyKcQO0aSj" version="20.2.3" type="github">
  <diagram id="3hA0JPDEhd9gc4Itpv3c" name="Pagina-1">
    <mxGraphModel dx="1422" dy="762" grid="0" gridSize="10" guides="1" tooltips="1" connect="1" arrows="1" fold="1" page="1" pageScale="1" pageWidth="1169" pageHeight="827" math="0" shadow="0">
      <root>
        <mxCell id="0" />
        <mxCell id="1" parent="0" />
        <mxCell id="vR5ajId_hpdWkppUzHqL-19" style="rounded=0;orthogonalLoop=1;jettySize=auto;html=1;exitX=0.418;exitY=1.033;exitDx=0;exitDy=0;fontSize=15;endArrow=none;endFill=0;strokeWidth=3;shadow=0;sketch=0;exitPerimeter=0;" edge="1" parent="1" source="vR5ajId_hpdWkppUzHqL-29">
          <mxGeometry relative="1" as="geometry">
            <mxPoint x="168" y="311.75" as="sourcePoint" />
            <mxPoint x="507" y="328" as="targetPoint" />
          </mxGeometry>
        </mxCell>
        <mxCell id="vR5ajId_hpdWkppUzHqL-31" value="" style="whiteSpace=wrap;html=1;dashed=1;dashPattern=1 1;rounded=1;glass=0;strokeColor=#2146FF;strokeWidth=2;shadow=0;sketch=0;" vertex="1" parent="1">
          <mxGeometry x="200" y="325" width="582" height="228" as="geometry" />
        </mxCell>
        <mxCell id="vR5ajId_hpdWkppUzHqL-13" value="" style="whiteSpace=wrap;html=1;dashed=1;dashPattern=1 1;rounded=1;glass=0;strokeColor=#2146FF;strokeWidth=2;shadow=0;sketch=0;" vertex="1" parent="1">
          <mxGeometry x="855" y="215" width="217" height="445" as="geometry" />
        </mxCell>
        <mxCell id="vR5ajId_hpdWkppUzHqL-5" value="" style="shape=image;html=1;verticalAlign=top;verticalLabelPosition=bottom;labelBackgroundColor=#ffffff;imageAspect=0;aspect=fixed;image=https://cdn4.iconfinder.com/data/icons/travello-basic-ui-1/64/Home-128.png" vertex="1" parent="1">
          <mxGeometry x="532" y="348" width="100" height="100" as="geometry" />
        </mxCell>
        <mxCell id="vR5ajId_hpdWkppUzHqL-9" value="" style="shape=image;html=1;verticalAlign=top;verticalLabelPosition=bottom;labelBackgroundColor=#ffffff;imageAspect=0;aspect=fixed;image=https://cdn4.iconfinder.com/data/icons/ios-web-user-interface-multi-circle-flat-vol-4/512/Building_business_company_house_home_real_estate_state-128.png" vertex="1" parent="1">
          <mxGeometry x="382" y="348" width="128" height="128" as="geometry" />
        </mxCell>
        <mxCell id="vR5ajId_hpdWkppUzHqL-11" value="" style="shape=image;html=1;verticalAlign=top;verticalLabelPosition=bottom;labelBackgroundColor=#ffffff;imageAspect=0;aspect=fixed;image=https://cdn1.iconfinder.com/data/icons/2-building-line-filled/614/Police_Station-128.png" vertex="1" parent="1">
          <mxGeometry x="879" y="244" width="181" height="181" as="geometry" />
        </mxCell>
        <mxCell id="vR5ajId_hpdWkppUzHqL-12" value="" style="shape=image;html=1;verticalAlign=top;verticalLabelPosition=bottom;labelBackgroundColor=#ffffff;imageAspect=0;aspect=fixed;image=https://cdn1.iconfinder.com/data/icons/2-building-line-filled/614/Police_Station-128.png" vertex="1" parent="1">
          <mxGeometry x="882" y="461" width="181" height="181" as="geometry" />
        </mxCell>
        <mxCell id="vR5ajId_hpdWkppUzHqL-14" value="&lt;font style=&quot;font-size: 15px;&quot;&gt;&lt;b&gt;Twin&amp;nbsp;&lt;/b&gt;&lt;/font&gt;&lt;span style=&quot;font-size: 15px;&quot;&gt;&lt;b&gt;Datacenters&lt;/b&gt;&lt;/span&gt;" style="text;html=1;resizable=0;autosize=1;align=center;verticalAlign=middle;points=[];fillColor=none;strokeColor=none;rounded=0;shadow=0;glass=0;dashed=1;dashPattern=1 1;sketch=0;" vertex="1" parent="1">
          <mxGeometry x="897" y="425" width="141" height="30" as="geometry" />
        </mxCell>
        <mxCell id="vR5ajId_hpdWkppUzHqL-15" value="&lt;span style=&quot;font-size: 15px;&quot;&gt;&lt;b&gt;KVK Kantoren&lt;/b&gt;&lt;/span&gt;" style="text;html=1;resizable=0;autosize=1;align=center;verticalAlign=middle;points=[];fillColor=none;strokeColor=none;rounded=0;shadow=0;glass=0;dashed=1;dashPattern=1 1;sketch=0;" vertex="1" parent="1">
          <mxGeometry x="435" y="516" width="120" height="30" as="geometry" />
        </mxCell>
        <mxCell id="vR5ajId_hpdWkppUzHqL-24" style="edgeStyle=none;rounded=0;orthogonalLoop=1;jettySize=auto;html=1;exitX=0.876;exitY=1.033;exitDx=0;exitDy=0;entryX=0.5;entryY=0;entryDx=0;entryDy=0;fontSize=15;endArrow=none;endFill=0;strokeWidth=3;shadow=0;sketch=0;startArrow=none;exitPerimeter=0;" edge="1" parent="1">
          <mxGeometry relative="1" as="geometry">
            <mxPoint x="963.364" y="126.98000000000002" as="sourcePoint" />
            <mxPoint x="963.5" y="215" as="targetPoint" />
          </mxGeometry>
        </mxCell>
        <mxCell id="vR5ajId_hpdWkppUzHqL-7" value="" style="shape=image;html=1;verticalAlign=top;verticalLabelPosition=bottom;labelBackgroundColor=#ffffff;imageAspect=0;aspect=fixed;image=https://cdn4.iconfinder.com/data/icons/universal-7/614/20_-_Home-128.png" vertex="1" parent="1">
          <mxGeometry x="653" y="337" width="128" height="128" as="geometry" />
        </mxCell>
        <mxCell id="vR5ajId_hpdWkppUzHqL-1" value="" style="shape=image;html=1;verticalAlign=top;verticalLabelPosition=bottom;labelBackgroundColor=#ffffff;imageAspect=0;aspect=fixed;image=https://cdn1.iconfinder.com/data/icons/unicons-line-vol-1/24/building-128.png" vertex="1" parent="1">
          <mxGeometry x="224" y="346" width="128" height="128" as="geometry" />
        </mxCell>
        <mxCell id="vR5ajId_hpdWkppUzHqL-29" value="" style="whiteSpace=wrap;html=1;rounded=1;shadow=0;glass=0;sketch=0;fontSize=15;strokeColor=#A680B8;strokeWidth=2;" vertex="1" parent="1">
          <mxGeometry x="97" y="65" width="989" height="60" as="geometry" />
        </mxCell>
        <mxCell id="vR5ajId_hpdWkppUzHqL-30" value="" style="whiteSpace=wrap;html=1;rounded=1;shadow=0;glass=0;sketch=0;fontSize=15;strokeColor=#A680B8;strokeWidth=2;" vertex="1" parent="1">
          <mxGeometry x="90" y="717" width="989" height="60" as="geometry" />
        </mxCell>
        <mxCell id="vR5ajId_hpdWkppUzHqL-23" value="&lt;b style=&quot;&quot;&gt;&lt;font style=&quot;font-size: 23px;&quot;&gt;IP-VPN&lt;/font&gt;&lt;/b&gt;" style="text;html=1;resizable=0;autosize=1;align=center;verticalAlign=middle;points=[];fillColor=none;strokeColor=none;rounded=0;shadow=0;glass=0;dashed=1;dashPattern=1 1;sketch=0;" vertex="1" parent="1">
          <mxGeometry x="513" y="75" width="95" height="40" as="geometry" />
        </mxCell>
        <mxCell id="vR5ajId_hpdWkppUzHqL-32" style="rounded=0;orthogonalLoop=1;jettySize=auto;html=1;exitX=0.558;exitY=1.3;exitDx=0;exitDy=0;fontSize=15;endArrow=none;endFill=0;strokeWidth=3;shadow=0;sketch=0;exitPerimeter=0;" edge="1" parent="1" source="vR5ajId_hpdWkppUzHqL-15">
          <mxGeometry relative="1" as="geometry">
            <mxPoint x="527.2370000000001" y="583" as="sourcePoint" />
            <mxPoint x="502" y="716" as="targetPoint" />
          </mxGeometry>
        </mxCell>
        <mxCell id="vR5ajId_hpdWkppUzHqL-33" style="edgeStyle=none;rounded=0;orthogonalLoop=1;jettySize=auto;html=1;exitX=0.876;exitY=1.033;exitDx=0;exitDy=0;fontSize=15;endArrow=none;endFill=0;strokeWidth=3;shadow=0;sketch=0;startArrow=none;exitPerimeter=0;" edge="1" parent="1">
          <mxGeometry relative="1" as="geometry">
            <mxPoint x="974.004" y="660" as="sourcePoint" />
            <mxPoint x="974" y="716" as="targetPoint" />
          </mxGeometry>
        </mxCell>
        <mxCell id="vR5ajId_hpdWkppUzHqL-34" value="&lt;span style=&quot;font-size: 23px;&quot;&gt;&lt;b&gt;Internet&lt;/b&gt;&lt;/span&gt;" style="text;html=1;resizable=0;autosize=1;align=center;verticalAlign=middle;points=[];fillColor=none;strokeColor=none;rounded=0;shadow=0;glass=0;dashed=1;dashPattern=1 1;sketch=0;" vertex="1" parent="1">
          <mxGeometry x="510" y="726" width="102" height="40" as="geometry" />
        </mxCell>
      </root>
    </mxGraphModel>
  </diagram>
</mxfile>
